<svg width="42" height="41" viewBox="0 0 42 41" fill="none" xmlns="http://www.w3.org/2000/svg">
<path d="M31.3043 32.8246C33.7056 32.8246 35.6522 30.8609 35.6522 28.4386C35.6522 26.0163 33.7056 24.0526 31.3043 24.0526C28.9031 24.0526 26.9565 26.0163 26.9565 28.4386C26.9565 30.8609 28.9031 32.8246 31.3043 32.8246ZM31.3043 32.8246C27.4624 32.8246 24.3478 35.9664 24.3478 39.8421H38.2609C38.2609 35.9664 35.1463 32.8246 31.3043 32.8246ZM15.6522 10.8947C15.6522 15.2549 12.1483 18.7895 7.82609 18.7895C3.50386 18.7895 0 15.2549 0 10.8947C0 6.53459 3.50386 3 7.82609 3C12.1483 3 15.6522 6.53459 15.6522 10.8947ZM0 24.0526H15.6522V39.8421H0V24.0526ZM31.3043 3L40 18.7895H22.6087L31.3043 3Z" stroke="#333333" stroke-width="2" stroke-linecap="square"/>
</svg>
